<svg version="1" xmlns="http://www.w3.org/2000/svg" width="933.333" height="933.333" viewBox="0 0 700.000000 700.000000"><path d="M14 54.8c-1.6.6-1.4 589.9.3 590.4.6.2 29.3.4 63.7.3h62.5l.2-124c.1-68.2.2-124.9.2-126 .1-2 .8-2 119.1-2h119v252h63.2c34.8.1 63.5-.2 63.8-.6.3-.4.5-133.4.5-295.5V54.5h-127l-.5 119-.5 119.1H260c-65.2 0-118.7-.3-119-.7-.3-.4-.5-53.9-.4-118.8 0-65-.2-118.2-.5-118.2-1.6-.3-125.2-.4-126.1-.1zM603.5 489.8c-23.6 2-43.1 12.8-58.8 32.6-4.4 5.7-8.6 13.7-11.1 21.2-2.9 8.9-3.7 14.2-3.8 23.9 0 10.1.8 15.3 3.3 23.4 3.9 12.5 10.4 22.6 20.4 32 16 14.9 33.3 22.1 53.5 22.3 24.5.2 42.4-7.4 59.7-25.2 19.3-19.9 25.5-52.1 15.2-79.5-8.6-22.9-29.7-42-53.4-48.4-6.3-1.6-19-2.9-25-2.3zm14.1 45.6c7.9 1.7 16.6 9.2 21 18.3 2.5 5 2.9 6.9 2.8 14.3 0 10.1-2.8 17.2-9 23.4-7.9 7.7-21.2 11.2-32.5 8.4-9.8-2.5-19.3-11-23-20.7-2.4-6.5-2.1-17.9.8-24.3 2.4-5.3 9-12.8 13.8-15.8 6.3-3.9 17.5-5.5 26.1-3.6z"/></svg>